<?xml version="1.0" standalone="no"?>
<!DOCTYPE svg PUBLIC "-//W3C//DTD SVG 20010904//EN"
 "http://www.w3.org/TR/2001/REC-SVG-20010904/DTD/svg10.dtd">
<svg version="1.0" xmlns="http://www.w3.org/2000/svg"
 width="688.000000pt" height="688.000000pt" viewBox="0 0 688.000000 688.000000"
 preserveAspectRatio="xMidYMid meet">
<metadata>
Created by potrace 1.14, written by Peter Selinger 2001-2017
</metadata>
<g transform="translate(0.000000,688.000000) scale(0.100000,-0.100000)"
fill="#000000" stroke="none">
<path d="M2715 6874 c-16 -2 -73 -9 -125 -15 -827 -94 -1588 -631 -1963 -1385
-136 -273 -207 -503 -253 -819 -25 -171 -23 -513 4 -688 l20 -128 -54 -104
c-260 -497 -351 -1059 -258 -1605 90 -531 355 -1039 735 -1405 692 -668 1672
-894 2579 -595 304 100 557 238 810 441 l99 80 143 9 c845 57 1601 519 2030
1242 224 379 340 778 355 1223 29 893 -404 1723 -1157 2218 -122 80 -362 202
-488 247 l-87 32 -73 111 c-396 608 -1028 1008 -1772 1122 -100 15 -478 29
-545 19z m535 -139 c657 -99 1217 -435 1615 -968 32 -43 56 -80 53 -82 -3 -3
-47 4 -99 15 -177 36 -322 50 -537 50 -195 0 -274 -8 -292 -27 -22 -24 -21
-53 5 -79 23 -23 32 -25 67 -20 76 12 412 7 531 -9 712 -93 1324 -473 1722
-1070 250 -375 383 -789 401 -1250 42 -1044 -592 -1996 -1576 -2367 -148 -56
-381 -114 -543 -134 -75 -9 -140 -14 -144 -11 -3 4 20 34 51 67 127 138 281
364 377 555 53 104 59 123 50 147 -5 14 -19 29 -31 33 -47 15 -63 -1 -122
-118 -365 -723 -1025 -1199 -1838 -1324 -162 -25 -519 -24 -685 1 -503 76
-970 304 -1333 650 -401 384 -647 870 -733 1451 -21 136 -18 500 5 650 22 146
72 347 120 477 39 108 116 278 125 278 3 0 21 -49 40 -108 46 -146 125 -326
207 -471 75 -133 156 -249 179 -257 46 -18 97 36 74 78 -6 11 -39 63 -74 117
-199 304 -321 638 -376 1031 -19 131 -16 462 5 610 101 703 473 1301 1053
1693 313 212 697 356 1053 396 52 6 111 13 130 15 74 9 420 -4 520 -19z"/>
<path d="M1621 5199 c-177 -23 -346 -166 -404 -342 -20 -61 -20 -83 -25 -1314
-3 -875 -1 -1277 7 -1335 27 -207 173 -370 378 -423 84 -22 3329 -22 3412 0
179 47 320 187 366 360 13 52 15 222 15 1337 0 891 -3 1293 -11 1330 -35 168
-166 312 -338 370 l-66 23 -1635 1 c-899 1 -1664 -2 -1699 -7z m2202 -116
c142 -6 158 -8 154 -23 -4 -16 32 -17 470 -24 441 -6 479 -8 528 -27 72 -27
147 -96 182 -167 l28 -57 3 -1260 c1 -859 -1 -1276 -8 -1311 -15 -71 -66 -151
-124 -195 -88 -66 -99 -68 -613 -75 l-463 -7 0 -23 c0 -21 6 -23 53 -27 28 -2
-500 -4 -1174 -5 -1208 -2 -1226 -2 -1285 18 -118 41 -205 130 -244 250 -20
65 -21 72 -18 1355 l3 1290 31 65 c50 106 146 187 253 216 35 10 289 13 1056
13 556 1 1081 -2 1168 -6z"/>
<path d="M1622 4787 l-22 -23 0 -1291 0 -1292 26 -20 27 -21 1626 0 c1262 1
1630 3 1642 13 9 7 21 22 27 34 14 26 16 564 5 1788 -6 756 -7 799 -25 817
-17 17 -81 18 -1651 18 l-1634 0 -21 -23z"/>
</g>
</svg>
